<?xml version="1.0" encoding="UTF-8" standalone="no"?><!DOCTYPE svg PUBLIC "-//W3C//DTD SVG 1.1//EN" "http://www.w3.org/Graphics/SVG/1.1/DTD/svg11.dtd"><svg width="100%" height="100%" viewBox="0 0 500 95" version="1.1" xmlns="http://www.w3.org/2000/svg" xmlns:xlink="http://www.w3.org/1999/xlink" xml:space="preserve" xmlns:serif="http://www.serif.com/" style="fill-rule:evenodd;clip-rule:evenodd;stroke-linejoin:round;stroke-miterlimit:1.41421;"><g id="logo"><path d="M29.237,87.334c0,4.209 -3.419,7.623 -7.63,7.623c-4.214,0 -7.632,-3.414 -7.632,-7.623l0,-48.372c0,-4.209 3.418,-7.621 7.632,-7.621c4.211,0 7.63,3.412 7.63,7.621l0,48.372Z" style="fill:#2357a5;fill-rule:nonzero;"/><path d="M86.76,31.344l-48.43,0c-4.214,0 -7.631,3.413 -7.631,7.621c0,4.213 3.417,7.622 7.631,7.622l16.585,0l0,40.792c0,4.205 3.414,7.621 7.629,7.621c4.213,0 7.633,-3.416 7.633,-7.621l0,-40.792l16.583,0c4.213,0 7.63,-3.409 7.63,-7.622c0,-4.208 -3.417,-7.621 -7.63,-7.621" style="fill:#2357a5;fill-rule:nonzero;"/><path d="M101.895,25.5c8.422,13.882 -3.599,36.757 -27.038,52.762l0,0.004c1.609,-0.858 3.212,-1.767 4.809,-2.734c26.48,-16.027 40.682,-40.997 31.719,-55.773c-8.963,-14.779 -37.698,-13.767 -64.18,2.26c-1.601,0.969 -3.153,1.972 -4.663,3.002c25.057,-13.348 50.932,-13.401 59.353,0.479" style="fill:#f26721;fill-rule:nonzero;"/><path d="M40.366,12.075c-0.615,-1.979 -2.722,-3.083 -4.703,-2.47c-1.702,0.529 -2.755,2.154 -2.629,3.856l-3.788,1.175c-1.235,-2.916 -4.125,-4.969 -7.498,-4.969c-2.034,0 -3.89,0.752 -5.317,1.984l-5.943,-5.92c0.902,-1.451 0.725,-3.379 -0.537,-4.635c-1.47,-1.464 -3.85,-1.461 -5.316,0.007c-1.463,1.468 -1.462,3.846 0.009,5.309c1.262,1.256 3.191,1.428 4.641,0.525l5.983,5.96c-1.035,1.362 -1.654,3.053 -1.654,4.896c0,1.122 0.224,2.187 0.638,3.161l-7.837,4.855c-1.205,-1.209 -3.126,-1.477 -4.639,-0.539c-1.761,1.093 -2.306,3.407 -1.21,5.169c1.093,1.761 3.41,2.303 5.172,1.21c1.516,-0.939 2.127,-2.778 1.577,-4.391l7.767,-4.816c1.47,2.098 3.906,3.474 6.666,3.474c4.492,0 8.133,-3.637 8.133,-8.123c0,-0.521 -0.055,-1.03 -0.148,-1.525l3.806,-1.179c0.865,1.471 2.653,2.214 4.355,1.685c1.982,-0.615 3.09,-2.718 2.472,-4.699" style="fill:#2357a5;fill-rule:nonzero;"/></g><path d="M132.328,52.081l3.337,0l0,-3.975c0,-2.512 0.937,-4.612 5.512,-4.612l1.237,0l0,-2.737l-1.237,0c-2.887,0 -4.312,0.45 -5.399,2.4l-0.113,-0.038l0,-4.161c0,-3.337 1.725,-5.025 5.099,-5.025c3.412,0 5.175,1.688 5.175,5.025l0,13.123l3.337,0l0,-13.123c0,-5.025 -2.55,-7.799 -8.474,-7.799c-5.924,0 -8.474,2.774 -8.474,7.799l0,13.123Z" style="fill-rule:nonzero;"/><path d="M159.587,52.456c0.824,0 1.724,-0.113 2.662,-0.563l-0.488,-2.399c-0.412,0.15 -0.9,0.225 -1.387,0.225c-1.087,0 -1.575,-0.45 -1.575,-1.575l0,-3.3c0,-2.662 1.5,-3.712 3.375,-3.712l0.3,-1.799l-4.275,-2.025c0.038,-2.212 1.95,-3.375 4.612,-3.375c2.475,0 4.799,1.013 4.799,4.612l0,7.087c0,4.911 2.625,6.824 6.449,6.824c2.7,0 5.062,-1.35 5.925,-3.637l0.187,0l0.188,3.262l2.737,0l0,-20.547l-3.337,0l0,11.998c0,3.674 -2.025,6.112 -5.025,6.112c-2.324,0 -3.787,-1.275 -3.787,-4.275l0,-7.161c0,-5.175 -3.974,-7.049 -8.098,-7.049c-4.912,0 -8.062,2.662 -8.062,5.961l0,1.238l4.312,1.574l-0.037,0.113c-2.138,0.562 -3.6,1.725 -3.6,4.837l0,3.637c0,3.074 1.987,3.937 4.125,3.937Z" style="fill-rule:nonzero;"/><path d="M192.132,39.183l5.474,0l0,-2.625l-5.362,0c-0.937,0 -1.237,-0.488 -1.237,-1.125c0,-0.45 0.15,-0.937 0.263,-1.2l-2.813,-0.45c-0.375,0.563 -0.6,1.425 -0.6,2.175c0,1.65 1.163,3.225 4.275,3.225Zm0,10.498l5.474,0l0,-2.625l-5.362,0c-0.937,0 -1.237,-0.487 -1.237,-1.124c0,-0.45 0.15,-0.938 0.263,-1.2l-2.813,-0.45c-0.375,0.562 -0.6,1.425 -0.6,2.174c0,1.65 1.163,3.225 4.275,3.225Z" style="fill-rule:nonzero;"/><path d="M206.755,52.456c0.825,0 1.725,-0.113 2.699,-0.563l-0.45,-2.437c-0.449,0.15 -0.974,0.263 -1.424,0.263c-1.125,0 -1.575,-0.45 -1.575,-1.613l0,-16.572l-3.337,0l0,16.985c0,3.074 2.025,3.937 4.087,3.937Z" style="fill-rule:nonzero;"/><path d="M213.279,52.081l3.337,0l0,-11.886c0,-3.487 1.987,-6.224 5.512,-6.224c2.924,0 4.461,1.575 4.461,4.574l0,13.536l3.337,0l0,-13.723c0,-4.987 -2.699,-7.199 -7.161,-7.199c-3.187,0 -5.549,1.387 -6.412,3.637l-0.15,0l-0.6,-3.262l-2.324,0l0,20.547Z" style="fill-rule:nonzero;"/><path d="M236.001,52.081l3.337,0l0,-3.975c0,-2.512 0.937,-4.612 5.511,-4.612l1.238,0l0,-2.737l-1.238,0c-2.887,0 -4.312,0.45 -5.399,2.4l-0.112,-0.038l0,-4.161c0,-3.337 1.724,-5.025 5.099,-5.025c3.412,0 5.174,1.688 5.174,5.025l0,13.123l3.337,0l0,-13.123c0,-5.025 -2.55,-7.799 -8.474,-7.799c-5.924,0 -8.473,2.774 -8.473,7.799l0,13.123Z" style="fill-rule:nonzero;"/><path d="M264.196,52.456c0.825,0 1.725,-0.113 2.7,-0.563l-0.45,-2.437c-0.45,0.15 -0.975,0.263 -1.425,0.263c-1.124,0 -1.574,-0.45 -1.574,-1.613l0,-19.534c0,-2.438 -0.9,-3.937 -1.988,-4.687l0.038,-0.15l7.611,0l0,-2.625l-10.011,0l-2.774,1.2l0,1.425c2.212,0 3.787,1.2 3.787,4.199l0,20.585c0,3.074 2.024,3.937 4.086,3.937Z" style="fill-rule:nonzero;"/><path d="M277.432,52.456c3.262,0 5.549,-1.388 6.449,-3.412l0.188,0l0.15,3.037l2.774,0l0,-20.547l-3.337,0l0,11.885c0,3.787 -2.025,6.225 -5.512,6.225c-2.924,0 -4.461,-1.575 -4.461,-4.575l0,-13.535l-3.337,0l0,13.723c0,4.986 2.662,7.199 7.086,7.199Z" style="fill-rule:nonzero;"/><path d="M298.504,52.456c0.825,0 1.725,-0.113 2.7,-0.563l-0.45,-2.437c-0.45,0.15 -0.975,0.263 -1.425,0.263c-1.125,0 -1.575,-0.45 -1.575,-1.613l0,-19.534c0,-2.438 -0.9,-3.937 -1.987,-4.687l0.037,-0.15l7.612,0l0,-2.625l-10.011,0l-2.775,1.2l0,1.425c2.212,0 3.787,1.2 3.787,4.199l0,20.585c0,3.074 2.025,3.937 4.087,3.937Z" style="fill-rule:nonzero;"/><path d="M310.09,52.456c1.237,0 2.362,-0.15 3.337,-0.525l-0.525,-2.512c-0.637,0.225 -1.35,0.337 -2.175,0.337c-2.549,0 -4.049,-1.012 -4.049,-3.262c0,-2.4 1.612,-3.599 6.711,-3.937l3.15,-0.225l0,9.749l3.299,0l0,-13.873c0,-4.837 -2.549,-7.049 -7.798,-7.049c-3.112,0 -5.7,0.787 -7.124,1.537l0,3.112c2.024,-1.2 4.311,-1.912 6.824,-1.912c3.449,0 4.799,1.275 4.799,4.499l0,1.162l-3.6,0.225c-6.824,0.413 -9.636,2.663 -9.636,6.787c0,3.787 2.4,5.887 6.787,5.887Z" style="fill-rule:nonzero;"/><path d="M333.824,52.418c5.699,0 8.286,-2.137 8.286,-7.386l0,-13.498l-3.337,0l0,13.723c0,2.774 -1.162,4.424 -4.949,4.424c-3.862,0 -4.912,-1.762 -4.912,-3.937c0,-2.475 1.387,-3.487 4.387,-3.487l0.712,0l0,-2.437l-0.712,0c-2.25,0 -4.499,-0.525 -4.499,-3.15c0,-1.612 0.975,-2.662 3.074,-2.662c0.938,0 1.875,0.225 2.437,0.413l0.6,-2.587c-0.712,-0.375 -2.174,-0.563 -3.374,-0.563c-4.462,0 -6.112,2.55 -6.112,5.137c0,2.887 1.95,4.162 3.487,4.574l0,0.15c-1.65,0.3 -3.374,1.463 -3.374,4.912c0,3.899 2.212,6.374 8.286,6.374Z" style="fill-rule:nonzero;"/><path d="M326.175,28.272l15.935,0l0,-1.463l0.038,0l0,-4.237l-3.15,0l0,3.037l-10.086,0l-2.737,1.2l0,1.463Z" style="fill-rule:nonzero;"/><path d="M353.771,52.456c1.237,0 2.362,-0.15 3.337,-0.525l-0.525,-2.512c-0.637,0.225 -1.35,0.337 -2.175,0.337c-2.549,0 -4.049,-1.012 -4.049,-3.262c0,-2.4 1.612,-3.599 6.712,-3.937l3.149,-0.225l0,9.749l3.3,0l0,-13.873c0,-1.763 -0.338,-3.187 -1.2,-4.125c1.65,-0.675 2.849,-1.987 2.849,-3.899l-3.262,0c0,1.05 -0.674,1.725 -1.537,2.137c-1.05,-0.862 -2.662,-1.162 -4.649,-1.162c-3.112,0 -5.699,0.787 -7.124,1.537l0,3.112c2.025,-1.2 4.312,-1.912 6.824,-1.912c3.449,0 4.799,1.275 4.799,4.499l0,1.162l-3.599,0.225c-6.824,0.413 -9.636,2.663 -9.636,6.787c0,3.787 2.399,5.887 6.786,5.887Z" style="fill-rule:nonzero;"/><path d="M375.443,52.081l3.337,0l0,-15.073c0,-4.275 -2.475,-5.849 -6.374,-5.849c-2.55,0 -4.424,0.637 -5.437,1.125l0,2.999c1.462,-0.825 3,-1.35 4.799,-1.35c2.663,0 3.675,1.125 3.675,3.562l0,14.586Z" style="fill-rule:nonzero;"/><path d="M390.628,52.456c5.924,0 8.024,-2.85 8.024,-6c0,-3.674 -2.962,-5.136 -6.561,-6.374c-3.937,-1.349 -5.175,-2.024 -5.175,-3.674c0,-1.312 1.2,-2.512 4.575,-2.512c2.362,0 4.724,0.675 5.999,1.275l0,-2.812c-1.2,-0.75 -3.487,-1.2 -5.887,-1.2c-5.587,0 -8.024,2.287 -8.024,5.399c0,3.562 2.55,5.062 7.312,6.561c3.074,0.975 4.424,1.95 4.424,3.637c0,1.913 -1.95,2.925 -4.612,2.925c-2.512,0 -4.837,-0.75 -6.411,-1.387l-0.975,2.699c1.762,0.788 4.349,1.463 7.311,1.463Z" style="fill-rule:nonzero;"/><path d="M408.738,52.456c1.237,0 2.362,-0.15 3.337,-0.525l-0.525,-2.512c-0.637,0.225 -1.35,0.337 -2.174,0.337c-2.55,0 -4.05,-1.012 -4.05,-3.262c0,-2.4 1.612,-3.599 6.712,-3.937l3.149,-0.225l0,9.749l3.3,0l0,-13.873c0,-1.763 -0.338,-3.187 -1.2,-4.125c1.65,-0.675 2.85,-1.987 2.85,-3.899l-3.263,0c0,1.05 -0.674,1.725 -1.537,2.137c-1.05,-0.862 -2.662,-1.162 -4.649,-1.162c-3.112,0 -5.699,0.787 -7.124,1.537l0,3.112c2.025,-1.2 4.312,-1.912 6.824,-1.912c3.449,0 4.799,1.275 4.799,4.499l0,1.162l-3.599,0.225c-6.824,0.413 -9.636,2.663 -9.636,6.787c0,3.787 2.399,5.887 6.786,5.887Z" style="fill-rule:nonzero;"/><path d="M431.685,52.456c3.262,0 5.549,-1.388 6.449,-3.412l0.187,0l0.15,3.037l2.775,0l0,-20.547l-3.337,0l0,11.885c0,3.787 -2.025,6.225 -5.512,6.225c-2.924,0 -4.462,-1.575 -4.462,-4.575l0,-13.535l-3.337,0l0,13.723c0,4.986 2.662,7.199 7.087,7.199Z" style="fill-rule:nonzero;"/><path d="M452.232,52.456c0.825,0 1.725,-0.113 2.699,-0.563l-0.449,-2.437c-0.45,0.15 -0.975,0.263 -1.425,0.263c-1.125,0 -1.575,-0.45 -1.575,-1.613l0,-16.572l-3.337,0l0,16.985c0,3.074 2.025,3.937 4.087,3.937Z" style="fill-rule:nonzero;"/><path d="M458.756,52.081l3.337,0l0,-11.886c0,-3.487 1.987,-6.224 5.512,-6.224c2.924,0 4.462,1.575 4.462,4.574l0,13.536l3.337,0l0,-13.723c0,-4.987 -2.7,-7.199 -7.162,-7.199c-3.187,0 -5.549,1.387 -6.411,3.637l-0.15,0l-0.6,-3.262l-2.325,0l0,20.547Z" style="fill-rule:nonzero;"/><path d="M481.478,52.081l3.337,0l0,-3.975c0,-2.512 0.975,-4.612 5.511,-4.612l1.238,0l0,-2.737l-1.238,0c-2.887,0 -4.274,0.45 -5.399,2.4l-0.112,-0.038l0,-4.161c0,-3.337 1.724,-5.025 5.136,-5.025c3.375,0 5.137,1.688 5.137,5.025l0,13.123l3.337,0l0,-13.123c0,-2.063 -0.412,-3.75 -1.462,-4.8c1.762,-0.637 3.037,-1.987 3.037,-3.974l-3.262,0c0,1.125 -0.825,1.875 -1.762,2.212c-1.2,-0.9 -2.887,-1.237 -5.025,-1.237c-5.924,0 -8.473,2.774 -8.473,7.799l0,13.123Z" style="fill-rule:nonzero;"/><path d="M135.38,77.549c0.572,0 1.102,-0.085 1.547,-0.297l-0.233,-1.398c-0.255,0.127 -0.573,0.19 -0.933,0.19c-1.017,0 -1.653,-0.551 -1.653,-1.865c0,-1.377 0.678,-2.098 2.692,-2.267l1.441,-0.127l0,5.552l1.78,0l0,-7.862c0,-1.018 -0.17,-1.802 -0.593,-2.332c0.805,-0.36 1.313,-1.102 1.313,-2.182l-1.674,0c0,0.551 -0.254,0.932 -0.593,1.144c-0.509,-0.424 -1.229,-0.593 -2.119,-0.593c-1.441,0 -2.628,0.445 -3.264,0.868l0,1.696c0.89,-0.678 1.971,-1.06 3.094,-1.06c1.462,0 2.056,0.721 2.056,2.565l0,0.678l-1.674,0.127c-2.989,0.212 -4.239,1.505 -4.239,3.836c0,2.14 1.081,3.327 3.052,3.327Z" style="fill-rule:nonzero;"/><path d="M144.98,77.549c0.424,0 0.89,-0.064 1.314,-0.297l-0.233,-1.356c-0.17,0.085 -0.403,0.148 -0.615,0.148c-0.487,0 -0.699,-0.254 -0.699,-0.911l0,-2.098c0,-1.505 0.615,-1.907 1.441,-1.929l0.148,-0.996l-1.78,-1.144c0,-1.123 0.763,-1.95 2.056,-1.95c1.271,0 2.204,0.742 2.204,2.671l0,7.65l1.78,0l0,-7.841c0,-2.819 -1.738,-3.984 -3.942,-3.984c-2.5,0 -3.942,1.631 -3.942,3.348l0,0.699l1.908,0.89l-0.021,0.064c-0.975,0.318 -1.632,0.975 -1.632,2.734l0,2.119c0,1.717 0.911,2.183 2.013,2.183Z" style="fill-rule:nonzero;"/><path d="M156.191,77.337l1.801,0l0,-8.541c0,-2.394 -1.186,-3.284 -2.967,-3.284c-1.165,0 -2.034,0.36 -2.5,0.635l0,1.653c0.614,-0.487 1.292,-0.784 2.077,-0.784c1.144,0 1.589,0.657 1.589,2.056l0,8.265Z" style="fill-rule:nonzero;"/><path d="M164.774,77.549c2.713,0 3.836,-1.547 3.836,-4.366l0,-7.459l-1.78,0l0,7.459c0,1.908 -0.657,2.861 -2.056,2.861c-1.42,0 -2.077,-0.953 -2.077,-2.861l0,-7.459l-1.78,0l0,7.459c0,2.819 1.123,4.366 3.857,4.366Z" style="fill-rule:nonzero;"/><path d="M166.385,63.859l4.323,0l0,-1.399l-4.09,0c-0.424,0 -0.594,-0.318 -0.594,-0.678c0,-0.233 0.043,-0.53 0.085,-0.657l-1.399,-0.276c-0.19,0.318 -0.296,0.869 -0.296,1.272c0,0.911 0.508,1.738 1.971,1.738Z" style="fill-rule:nonzero;"/><path d="M174.735,77.549c1.483,0 2.5,-0.763 2.882,-1.928l0.085,0l0.148,1.716l1.42,0l0,-11.613l-1.78,0l0,6.781c0,2.141 -0.827,3.518 -2.31,3.518c-1.208,0 -1.865,-0.89 -1.865,-2.607l0,-7.692l-1.781,0l0,7.777c0,2.819 1.187,4.048 3.201,4.048Z" style="fill-rule:nonzero;"/><path d="M184.61,77.549c0.445,0 0.89,-0.064 1.314,-0.297l-0.212,-1.356c-0.19,0.085 -0.423,0.148 -0.614,0.148c-0.488,0 -0.678,-0.254 -0.678,-0.911l0,-9.409l-1.802,0l0,9.642c0,1.717 0.89,2.183 1.992,2.183Z" style="fill-rule:nonzero;"/><path d="M187.938,77.337l1.78,0l0,-6.782c0,-1.949 0.848,-3.518 2.31,-3.518c1.208,0 1.865,0.891 1.865,2.607l0,7.693l1.78,0l0,-7.778c0,-2.818 -1.166,-4.047 -3.221,-4.047c-1.463,0 -2.48,0.763 -2.861,2.055l-0.085,0l-0.297,-1.843l-1.271,0l0,11.613Z" style="fill-rule:nonzero;"/><path d="M198.598,77.337l1.78,0l0,-2.289c0,-1.42 0.402,-2.606 2.352,-2.606l0.509,0l0,-1.505l-0.509,0c-1.229,0 -1.822,0.254 -2.289,1.356l-0.063,-0.021l0,-2.395c0,-1.907 0.72,-2.861 2.14,-2.861c1.462,0 2.162,0.954 2.162,2.861l0,7.46l1.801,0l0,-7.46c0,-2.818 -1.187,-4.365 -3.942,-4.365c-2.755,0 -3.941,1.547 -3.941,4.365l0,7.46Z" style="fill-rule:nonzero;"/><path d="M211.97,77.549c0.445,0 0.89,-0.064 1.314,-0.297l-0.212,-1.356c-0.191,0.085 -0.424,0.148 -0.614,0.148c-0.488,0 -0.679,-0.254 -0.679,-0.911l0,-9.409l-0.021,0l0,-1.717c0,-1.378 -0.381,-2.225 -0.89,-2.649l0.021,-0.085l3.264,0l0,-1.42l-4.45,0l-1.378,0.636l0,0.784c0.975,0 1.653,0.678 1.653,2.374l0,11.719c0,1.717 0.89,2.183 1.992,2.183Z" style="fill-rule:nonzero;"/><path d="M218.307,77.549c1.483,0 2.5,-0.763 2.882,-1.928l0.085,0l0.148,1.716l1.42,0l0,-11.613l-1.78,0l0,6.781c0,2.141 -0.827,3.518 -2.31,3.518c-1.208,0 -1.865,-0.89 -1.865,-2.607l0,-7.692l-1.78,0l0,7.777c0,2.819 1.186,4.048 3.2,4.048Z" style="fill-rule:nonzero;"/><path d="M228.458,77.549c0.445,0 0.89,-0.064 1.314,-0.297l-0.212,-1.356c-0.191,0.085 -0.424,0.148 -0.615,0.148c-0.487,0 -0.678,-0.254 -0.678,-0.911l0,-9.409l-0.021,0l0,-1.717c0,-1.378 -0.381,-2.225 -0.89,-2.649l0.021,-0.085l3.264,0l0,-1.42l-4.451,0l-1.377,0.636l0,0.784c0.975,0 1.653,0.678 1.653,2.374l0,11.719c0,1.717 0.89,2.183 1.992,2.183Z" style="fill-rule:nonzero;"/><path d="M234.159,77.549c0.572,0 1.102,-0.085 1.547,-0.297l-0.233,-1.398c-0.254,0.127 -0.572,0.19 -0.933,0.19c-1.017,0 -1.653,-0.551 -1.653,-1.865c0,-1.377 0.678,-2.098 2.692,-2.267l1.441,-0.127l0,5.552l1.78,0l0,-7.862c0,-2.692 -1.314,-3.963 -3.666,-3.963c-1.441,0 -2.628,0.445 -3.264,0.868l0,1.696c0.89,-0.678 1.971,-1.06 3.094,-1.06c1.462,0 2.056,0.721 2.056,2.565l0,0.678l-1.674,0.127c-2.988,0.212 -4.239,1.505 -4.239,3.836c0,2.14 1.081,3.327 3.052,3.327Z" style="fill-rule:nonzero;"/><path d="M245.391,77.528c2.649,0 3.857,-1.208 3.857,-4.175l0,-7.629l-1.801,0l0,7.756c0,1.589 -0.467,2.543 -2.056,2.543c-1.611,0 -2.034,-1.017 -2.034,-2.246c0,-1.441 0.572,-2.014 1.822,-2.014l0.318,0l0,-1.335l-0.318,0c-0.954,0 -1.886,-0.318 -1.886,-1.822c0,-0.912 0.403,-1.526 1.293,-1.526c0.381,0 0.784,0.127 1.017,0.233l0.297,-1.42c-0.339,-0.212 -0.996,-0.318 -1.59,-0.318c-2.056,0 -2.818,1.441 -2.818,2.904c0,1.631 0.847,2.373 1.568,2.585l0,0.085c-0.742,0.169 -1.526,0.805 -1.526,2.776c0,2.204 1.038,3.603 3.857,3.603Z" style="fill-rule:nonzero;"/><path d="M241.915,63.859l7.333,0l0,-0.785l0.021,0l0,-2.394l-1.632,0l0,1.737l-4.344,0l-1.378,0.657l0,0.785Z" style="fill-rule:nonzero;"/><path d="M253.169,77.337l1.716,0l1.42,-6.231c0.149,-0.847 0.318,-1.335 0.466,-2.627l0.064,0c0.127,1.292 0.276,1.928 0.445,2.627l1.42,6.231l1.759,0l1.632,-11.613l-1.844,0l-0.593,4.874c-0.106,0.826 -0.17,2.119 -0.297,3.942l-0.064,0c-0.296,-1.844 -0.572,-3.116 -0.763,-4.006l-1.08,-4.81l-1.314,0l-1.081,4.81c-0.191,0.89 -0.466,2.162 -0.763,4.006l-0.064,0c-0.127,-1.823 -0.19,-3.116 -0.275,-3.942l-0.615,-4.874l-1.822,0l1.653,11.613Z" style="fill-rule:nonzero;"/><path d="M267.114,77.549c2.755,0 3.687,-1.589 3.687,-3.37c0,-2.076 -1.229,-2.861 -2.903,-3.581c-1.653,-0.721 -2.247,-1.187 -2.247,-2.141c0,-0.763 0.509,-1.441 1.865,-1.441c1.039,0 2.141,0.361 2.713,0.7l0,-1.526c-0.53,-0.424 -1.568,-0.678 -2.713,-0.678c-2.458,0 -3.666,1.314 -3.666,3.03c0,2.013 1.144,2.84 3.2,3.688c1.335,0.551 1.95,1.144 1.95,2.119c0,1.102 -0.763,1.695 -1.886,1.695c-1.124,0 -2.205,-0.402 -2.904,-0.784l-0.509,1.484c0.869,0.424 2.099,0.805 3.413,0.805Z" style="fill-rule:nonzero;"/><path d="M274.361,70.026l2.501,0l0,-1.441l-2.289,0c-0.445,0 -0.572,-0.276 -0.572,-0.636c0,-0.255 0.043,-0.551 0.106,-0.678l-1.42,-0.255c-0.169,0.297 -0.297,0.784 -0.297,1.187c0,0.933 0.53,1.823 1.971,1.823Zm0,5.934l2.501,0l0,-1.442l-2.289,0c-0.445,0 -0.572,-0.275 -0.572,-0.635c0,-0.255 0.043,-0.551 0.106,-0.678l-1.42,-0.255c-0.169,0.297 -0.297,0.784 -0.297,1.187c0,0.932 0.53,1.823 1.971,1.823Z" style="fill-rule:nonzero;"/><path d="M280.168,77.337l1.632,0c3.073,0 4.196,-2.119 4.196,-5.828c0,-3.793 -1.208,-5.997 -4.323,-5.997c-1.335,0 -2.501,0.381 -3.179,0.89l0,1.695c0.848,-0.742 1.823,-1.081 2.925,-1.081c1.949,0 2.755,1.293 2.755,4.472c0,3.2 -0.742,4.387 -2.141,4.387l-0.191,0l0,-5.171l-2.861,0l0,1.441l1.187,0l0,5.192Z" style="fill-rule:nonzero;"/><path d="M291.951,77.549c2.967,0 4.091,-2.183 4.091,-5.934c0,-3.709 -1.23,-6.103 -4.281,-6.103c-1.293,0 -2.522,0.381 -3.2,0.826l0,1.696c0.847,-0.657 1.886,-1.018 2.945,-1.018c1.992,0 2.713,1.441 2.713,4.578c0,3.624 -0.89,4.472 -2.289,4.472c-1.314,0 -1.95,-0.742 -1.95,-3.497l0,-0.424l1.993,0l0,-1.441l-3.667,0c-0.063,0.657 -0.106,1.314 -0.106,1.886c0,3.454 1.229,4.959 3.751,4.959Z" style="fill-rule:nonzero;"/><path d="M303.353,77.549c2.013,0 3.158,-1.229 3.158,-4.027l0,-7.798l-1.802,0l0,7.692c0,1.717 -0.614,2.607 -1.822,2.607c-1.484,0 -2.331,-1.377 -2.331,-3.518l0,-6.781l-1.781,0l0,11.613l1.42,0l0.149,-1.844l0.084,0c0.382,1.293 1.442,2.056 2.925,2.056Z" style="fill-rule:nonzero;"/><path d="M311.724,77.549c0.445,0 0.89,-0.064 1.314,-0.297l-0.212,-1.356c-0.191,0.085 -0.424,0.148 -0.614,0.148c-0.488,0 -0.679,-0.254 -0.679,-0.911l0,-9.409l-1.801,0l0,9.642c0,1.717 0.89,2.183 1.992,2.183Z" style="fill-rule:nonzero;"/><path d="M314.924,77.337l1.78,0l0,-4.048c0,-1.504 0.636,-2.161 1.484,-2.183l0.127,-0.996l-1.717,-1.144c0,-1.123 0.763,-1.95 2.056,-1.95c1.251,0 2.183,0.742 2.183,2.671l0,7.65l1.78,0l0,-7.841c0,-2.819 -1.738,-3.984 -3.942,-3.984c-2.479,0 -3.92,1.631 -3.92,3.348l0,0.699l1.843,0.89l-0.021,0.064c-0.996,0.318 -1.653,0.975 -1.653,2.755l0,4.069Z" style="fill-rule:nonzero;"/><path d="M328.064,77.549c0.572,0 1.102,-0.085 1.547,-0.297l-0.233,-1.398c-0.255,0.127 -0.573,0.19 -0.933,0.19c-1.017,0 -1.653,-0.551 -1.653,-1.865c0,-1.377 0.678,-2.098 2.692,-2.267l1.441,-0.127l0,5.552l1.78,0l0,-7.862c0,-2.692 -1.314,-3.963 -3.666,-3.963c-1.442,0 -2.628,0.445 -3.264,0.868l0,1.696c0.89,-0.678 1.971,-1.06 3.094,-1.06c1.462,0 2.056,0.721 2.056,2.565l0,0.678l-1.675,0.127c-2.988,0.212 -4.238,1.505 -4.238,3.836c0,2.14 1.081,3.327 3.052,3.327Z" style="fill-rule:nonzero;"/><path d="M327.725,63.88l5.277,0l0,-1.441l-2.671,0c0.212,-0.318 0.339,-0.742 0.339,-1.23c0,-0.932 -0.551,-1.631 -1.483,-1.631c-0.36,0 -1.017,0.106 -1.484,0.551l0.34,1.123c0.169,-0.085 0.402,-0.233 0.635,-0.233c0.318,0 0.488,0.275 0.488,0.614c0,0.784 -0.827,1.145 -1.441,1.314l0,0.933Z" style="fill-rule:nonzero;"/><path d="M338.3,77.337l1.801,0l0,-8.541c0,-2.394 -1.187,-3.284 -2.967,-3.284c-1.165,0 -2.034,0.36 -2.501,0.635l0,1.653c0.615,-0.487 1.293,-0.784 2.077,-0.784c1.145,0 1.59,0.657 1.59,2.056l0,8.265Z" style="fill-rule:nonzero;"/><path d="M345.315,77.549c0.445,0 0.89,-0.064 1.313,-0.297l-0.211,-1.356c-0.191,0.085 -0.424,0.148 -0.615,0.148c-0.487,0 -0.678,-0.254 -0.678,-0.911l0,-9.409l-1.802,0l0,9.642c0,1.717 0.891,2.183 1.993,2.183Z" style="fill-rule:nonzero;"/><path d="M349.193,77.337l1.632,0c3.073,0 4.196,-2.119 4.196,-5.828c0,-3.793 -1.208,-5.997 -4.324,-5.997c-1.335,0 -2.5,0.381 -3.178,0.89l0,1.695c0.847,-0.742 1.822,-1.081 2.924,-1.081c1.95,0 2.755,1.293 2.755,4.472c0,3.2 -0.742,4.387 -2.14,4.387l-0.191,0l0,-5.171l-2.861,0l0,1.441l1.187,0l0,5.192Z" style="fill-rule:nonzero;"/><path d="M349.807,63.88l5.277,0l0,-1.441l-2.67,0c0.212,-0.318 0.339,-0.742 0.339,-1.23c0,-0.932 -0.551,-1.631 -1.483,-1.631c-0.361,0 -1.018,0.106 -1.484,0.551l0.339,1.123c0.17,-0.085 0.403,-0.233 0.636,-0.233c0.318,0 0.488,0.275 0.488,0.614c0,0.784 -0.827,1.145 -1.442,1.314l0,0.933Z" style="fill-rule:nonzero;"/><path d="M360.255,77.337l1.802,0l0,-8.541c0,-2.394 -1.187,-3.284 -2.967,-3.284c-1.166,0 -2.035,0.36 -2.501,0.635l0,1.653c0.615,-0.487 1.293,-0.784 2.077,-0.784c1.144,0 1.589,0.657 1.589,2.056l0,8.265Z" style="fill-rule:nonzero;"/><path d="M364.981,77.337l1.781,0l0,-2.289c0,-1.42 0.402,-2.606 2.352,-2.606l0.509,0l0,-1.505l-0.509,0c-1.229,0 -1.823,0.254 -2.289,1.356l-0.063,-0.021l0,-2.395c0,-1.907 0.72,-2.861 2.14,-2.861c1.462,0 2.162,0.954 2.162,2.861l0,7.46l1.801,0l0,-7.46c0,-2.818 -1.187,-4.365 -3.942,-4.365c-2.755,0 -3.942,1.547 -3.942,4.365l0,7.46Z" style="fill-rule:nonzero;"/><path d="M371.297,82.868l1.568,0l0,-2.882c0,-0.805 -0.381,-1.293 -1.25,-1.293c-0.339,0 -0.827,0.043 -1.166,0.191l0.127,1.272c0.106,-0.043 0.212,-0.085 0.361,-0.085c0.233,0 0.36,0.17 0.36,0.53l0,2.267Z" style="fill-rule:nonzero;"/><path d="M377.803,77.549c0.424,0 0.89,-0.064 1.314,-0.297l-0.233,-1.356c-0.17,0.085 -0.403,0.148 -0.615,0.148c-0.487,0 -0.699,-0.254 -0.699,-0.911l0,-1.886c0,-1.526 0.614,-2.141 1.441,-2.141l0.148,-0.996l-1.78,-1.144c0.021,-1.272 0.805,-1.95 1.907,-1.95c1.06,0 1.993,0.594 1.993,2.649l0,4.027c0,2.797 1.123,3.857 2.882,3.857c1.229,0 2.289,-0.763 2.67,-2.056l0.106,0l0.127,1.844l1.42,0l0,-11.613l-1.78,0l0,6.824c0,2.098 -0.827,3.475 -2.077,3.475c-0.932,0 -1.568,-0.72 -1.568,-2.437l0,-4.111c0,-2.925 -1.717,-3.963 -3.751,-3.963c-2.332,0 -3.773,1.483 -3.773,3.348l0,0.699l1.908,0.89l-0.022,0.064c-0.974,0.318 -1.631,0.975 -1.631,2.734l0,2.119c0,1.717 0.911,2.183 2.013,2.183Z" style="fill-rule:nonzero;"/><path d="M391.621,77.337l1.78,0l0,-6.782c0,-1.949 0.847,-3.518 2.31,-3.518c1.208,0 1.865,0.891 1.865,2.607l0,7.693l1.78,0l0,-7.778c0,-2.818 -1.166,-4.047 -3.221,-4.047c-1.463,0 -2.48,0.763 -2.861,2.055l-0.085,0l-0.297,-1.843l-1.271,0l0,11.613Z" style="fill-rule:nonzero;"/><path d="M402.429,77.337l1.78,0l0,-4.429l1.865,-2.331c1.441,0.127 2.056,1.123 2.056,2.649l0,4.111l1.801,0l0,-4.111c0,-2.374 -0.975,-3.815 -2.797,-3.984l2.733,-3.455l0,-0.063l-2.034,0l-3.582,5.065l-0.042,0l0,-5.065l-1.78,0l0,11.613Z" style="fill-rule:nonzero;"/><path d="M415.335,77.337l1.802,0l0,-8.541c0,-2.394 -1.187,-3.284 -2.967,-3.284c-1.166,0 -2.035,0.36 -2.501,0.635l0,1.653c0.614,-0.487 1.293,-0.784 2.077,-0.784c1.144,0 1.589,0.657 1.589,2.056l0,8.265Z" style="fill-rule:nonzero;"/><path d="M422.816,77.549c2.755,0 3.688,-1.589 3.688,-3.37c0,-2.076 -1.229,-2.861 -2.904,-3.581c-1.653,-0.721 -2.246,-1.187 -2.246,-2.141c0,-0.763 0.509,-1.441 1.865,-1.441c1.038,0 2.14,0.361 2.713,0.7l0,-1.526c-0.53,-0.424 -1.569,-0.678 -2.713,-0.678c-2.458,0 -3.666,1.314 -3.666,3.03c0,2.013 1.144,2.84 3.2,3.688c1.335,0.551 1.949,1.144 1.949,2.119c0,1.102 -0.763,1.695 -1.886,1.695c-1.123,0 -2.204,-0.402 -2.903,-0.784l-0.509,1.484c0.869,0.424 2.098,0.805 3.412,0.805Z" style="fill-rule:nonzero;"/><path d="M431.272,77.549c0.572,0 1.102,-0.085 1.547,-0.297l-0.233,-1.398c-0.254,0.127 -0.572,0.19 -0.932,0.19c-1.018,0 -1.653,-0.551 -1.653,-1.865c0,-1.377 0.678,-2.098 2.691,-2.267l1.441,-0.127l0,5.552l1.78,0l0,-7.862c0,-2.692 -1.314,-3.963 -3.666,-3.963c-1.441,0 -2.628,0.445 -3.264,0.868l0,1.696c0.89,-0.678 1.971,-1.06 3.094,-1.06c1.463,0 2.056,0.721 2.056,2.565l0,0.678l-1.674,0.127c-2.988,0.212 -4.239,1.505 -4.239,3.836c0,2.14 1.081,3.327 3.052,3.327Z" style="fill-rule:nonzero;"/><path d="M441.508,77.337l1.802,0l0,-8.541c0,-2.394 -1.187,-3.284 -2.967,-3.284c-1.166,0 -2.035,0.36 -2.501,0.635l0,1.653c0.614,-0.487 1.293,-0.784 2.077,-0.784c1.144,0 1.589,0.657 1.589,2.056l0,8.265Z" style="fill-rule:nonzero;"/><path d="M449.434,77.549c0.424,0 0.975,-0.064 1.314,-0.275l-0.191,-1.399c-0.233,0.106 -0.508,0.169 -0.826,0.169c-1.59,0 -2.056,-1.928 -2.056,-4.408c0,-3.814 1.039,-4.62 2.501,-4.62c1.547,0 2.119,0.975 2.119,2.734l0,7.587l1.802,0l0,-7.756c0,-2.501 -1.166,-4.069 -3.942,-4.069c-2.543,0 -4.281,1.335 -4.281,6.103c0,3.264 0.848,5.934 3.56,5.934Z" style="fill-rule:nonzero;"/><path d="M456.958,77.337l1.78,0l0,-4.048c0,-1.504 0.636,-2.161 1.483,-2.183l0.127,-0.996l-1.716,-1.144c0,-1.123 0.763,-1.95 2.056,-1.95c1.25,0 2.182,0.742 2.182,2.671l0,7.65l1.781,0l0,-7.841c0,-2.819 -1.738,-3.984 -3.942,-3.984c-2.48,0 -3.921,1.631 -3.921,3.348l0,0.699l1.844,0.89l-0.021,0.064c-0.996,0.318 -1.653,0.975 -1.653,2.755l0,4.069Z" style="fill-rule:nonzero;"/><path d="M470.33,77.549c2.755,0 3.688,-1.589 3.688,-3.37c0,-2.076 -1.229,-2.861 -2.904,-3.581c-1.653,-0.721 -2.246,-1.187 -2.246,-2.141c0,-0.763 0.509,-1.441 1.865,-1.441c1.038,0 2.14,0.361 2.713,0.7l0,-1.526c-0.53,-0.424 -1.569,-0.678 -2.713,-0.678c-2.458,0 -3.666,1.314 -3.666,3.03c0,2.013 1.144,2.84 3.2,3.688c1.335,0.551 1.949,1.144 1.949,2.119c0,1.102 -0.763,1.695 -1.886,1.695c-1.123,0 -2.204,-0.402 -2.903,-0.784l-0.509,1.484c0.869,0.424 2.098,0.805 3.412,0.805Z" style="fill-rule:nonzero;"/><path d="M477.578,70.026l2.501,0l0,-1.441l-2.289,0c-0.445,0 -0.572,-0.276 -0.572,-0.636c0,-0.255 0.042,-0.551 0.106,-0.678l-1.42,-0.255c-0.17,0.297 -0.297,0.784 -0.297,1.187c0,0.933 0.53,1.823 1.971,1.823Zm0,5.934l2.501,0l0,-1.442l-2.289,0c-0.445,0 -0.572,-0.275 -0.572,-0.635c0,-0.255 0.042,-0.551 0.106,-0.678l-1.42,-0.255c-0.17,0.297 -0.297,0.784 -0.297,1.187c0,0.932 0.53,1.823 1.971,1.823Z" style="fill-rule:nonzero;"/><path d="M486.225,77.549c2.712,0 3.836,-1.547 3.836,-4.366l0,-7.459l-1.781,0l0,7.459c0,1.908 -0.657,2.861 -2.055,2.861c-1.42,0 -2.077,-0.953 -2.077,-2.861l0,-7.459l-1.78,0l0,7.459c0,2.819 1.123,4.366 3.857,4.366Z" style="fill-rule:nonzero;"/><path d="M487.835,63.859l4.324,0l0,-1.399l-4.09,0c-0.424,0 -0.594,-0.318 -0.594,-0.678c0,-0.233 0.043,-0.53 0.085,-0.657l-1.399,-0.276c-0.191,0.318 -0.297,0.869 -0.297,1.272c0,0.911 0.509,1.738 1.971,1.738Z" style="fill-rule:nonzero;"/><path d="M494.511,77.337l0.975,0c1.526,0 2.437,-0.509 3.094,-1.335c0.805,-1.017 1.42,-2.776 1.42,-4.98c0,-1.717 -0.36,-3.243 -1.144,-4.196c-0.615,-0.785 -1.526,-1.208 -2.649,-1.208c-0.34,0 -0.785,0.042 -1.251,0.211l0.382,1.442c0.19,-0.085 0.445,-0.149 0.72,-0.149c1.335,0 2.162,1.463 2.162,3.836c0,1.42 -0.297,2.967 -0.89,3.921c-0.339,0.53 -0.806,0.89 -1.314,0.89l-0.17,0l-2.373,-10.045l-1.802,0l2.84,11.613Z" style="fill-rule:nonzero;"/></svg>